<?xml version="1.0" standalone="no"?>
<!DOCTYPE svg PUBLIC "-//W3C//DTD SVG 20010904//EN"
 "http://www.w3.org/TR/2001/REC-SVG-20010904/DTD/svg10.dtd">
<svg version="1.0" xmlns="http://www.w3.org/2000/svg"
 width="1280.000000pt" height="1013.000000pt" viewBox="0 0 1280.000000 1013.000000"
 preserveAspectRatio="xMidYMid meet">
<metadata>
Created by potrace 1.16, written by Peter Selinger 2001-2019
</metadata>
<g transform="translate(0.000000,1013.000000) scale(0.100000,-0.100000)"
fill="#000000" stroke="none">
<path fill="#919096" d="M8555 9954 c-57 -13 -172 -59 -226 -90 -76 -45 -174 -141 -224 -218
-20 -32 -52 -95 -69 -140 l-31 -81 -3 -438 c-3 -497 -3 -498 74 -655 64 -132
164 -232 296 -296 123 -60 188 -76 320 -76 l108 0 0 -200 0 -200 600 0 600 0
0 199 0 199 133 4 c116 4 142 8 213 35 201 75 340 216 421 425 l28 73 0 465 0
465 -28 73 c-41 106 -91 185 -161 257 -75 77 -154 128 -260 169 l-81 31 -845
1 c-465 1 -854 0 -865 -2z"/>
<path fill="#919096" d="M1693 7934 c-24 -14 -54 -44 -68 -68 -23 -40 -25 -52 -25 -174 l0
-132 1000 0 1000 0 0 132 c0 122 -2 134 -25 174 -15 26 -43 54 -69 69 l-43 25
-864 0 -864 0 -42 -26z"/>
<path fill="#919096" d="M955 7153 c-56 -11 -172 -58 -226 -89 -76 -45 -174 -141 -224 -218
-20 -32 -52 -95 -69 -140 l-31 -81 -3 -532 -3 -533 2066 0 2066 0 110 100
c132 120 236 200 372 287 122 78 364 197 501 248 183 67 531 145 651 145 l35
0 0 410 0 410 -2612 -1 c-1437 -1 -2622 -3 -2633 -6z"/>
<path fill="#919096" d="M6600 6750 l0 -410 35 0 c50 0 224 -27 330 -51 448 -102 843 -311
1194 -629 l110 -100 2066 0 2066 0 -3 533 -3 532 -28 73 c-41 106 -91 185
-161 257 -75 77 -154 128 -260 169 l-81 31 -2632 3 -2633 2 0 -410z"/>
<path fill="#919096" d="M6130 5950 c-413 -57 -787 -215 -1108 -468 -95 -75 -270 -249 -347
-347 -252 -317 -419 -721 -466 -1124 -17 -154 -7 -497 20 -636 72 -381 216
-698 450 -995 283 -358 722 -642 1170 -754 214 -55 269 -61 551 -61 288 0 346
7 568 66 619 163 1134 588 1413 1164 75 156 117 269 153 414 55 214 61 269 61
551 0 282 -6 337 -61 551 -37 150 -79 261 -159 424 -213 434 -544 770 -975
989 -201 102 -377 162 -615 207 -89 17 -156 22 -350 25 -132 1 -269 -1 -305
-6z m421 -404 c52 -3 147 -16 210 -29 714 -152 1255 -700 1401 -1419 20 -98
23 -143 23 -338 0 -195 -3 -240 -23 -338 -110 -545 -447 -996 -936 -1253 -471
-248 -1051 -267 -1540 -53 -542 237 -929 719 -1048 1305 -20 100 -23 143 -23
344 0 203 3 243 24 340 138 648 590 1159 1201 1359 182 59 453 101 585 89 17
-1 73 -4 126 -7z"/>
<path fill="#919096" d="M6165 5145 c-307 -56 -551 -184 -762 -397 -115 -117 -191 -222 -260
-363 -102 -207 -143 -387 -143 -625 0 -238 41 -418 143 -625 73 -148 158 -264
280 -382 123 -119 221 -187 369 -258 201 -96 376 -135 608 -135 238 0 418 41
625 143 141 69 246 145 363 260 208 206 347 473 397 761 20 118 20 355 -1 477
-32 189 -117 398 -228 559 -72 105 -232 268 -337 342 -171 121 -383 209 -583
243 -109 18 -372 19 -471 0z"/>
<path fill="#919096" d="M402 3028 l3 -2133 31 -81 c79 -203 218 -341 426 -421 l73 -28 5440
-3 c4816 -2 5446 0 5500 13 33 8 102 36 153 61 156 76 269 205 339 386 l28 73
3 2133 2 2132 -1909 0 -1910 0 55 -92 c185 -311 307 -683 345 -1045 17 -166 7
-527 -20 -679 -95 -551 -345 -1038 -732 -1424 -434 -433 -991 -692 -1614 -750
-738 -68 -1509 215 -2046 751 -412 411 -672 946 -745 1529 -19 153 -18 466 2
622 44 348 174 726 348 1014 l46 74 -1910 0 -1910 0 2 -2132z"/>
</g>
</svg>
