<svg xmlns="http://www.w3.org/2000/svg" xmlns:xlink="http://www.w3.org/1999/xlink" version="1.1" x="0px" y="0px" viewBox="0 0 100 125" style="enable-background:new 0 0 100 100;" xml:space="preserve"><path d="M91,46.98c0,4.83-3.44,8.87-8,9.8v-19.6C87.56,38.11,91,42.15,91,46.98z M9,39.98v14c0,2.21,1.79,4,4,4h16v-22H13  C10.79,35.98,9,37.77,9,39.98z M77.05,12.59c-1.22-0.73-2.7-0.76-3.95-0.09L33,35.15v23.66l40.12,22.65  c1.25,0.67,2.72,0.64,3.93-0.09c1.22-0.73,1.95-2.01,1.95-3.43V16.03C79,14.6,78.27,13.32,77.05,12.59z M15,83.98c0,2.21,1.79,4,4,4  s4-1.79,4-4v-22h-8V83.98z"/></svg>