<?xml version="1.0" standalone="no"?>
<!DOCTYPE svg PUBLIC "-//W3C//DTD SVG 20010904//EN"
 "http://www.w3.org/TR/2001/REC-SVG-20010904/DTD/svg10.dtd">
<svg version="1.0" xmlns="http://www.w3.org/2000/svg"
 width="1277.000000pt" height="1479.000000pt" viewBox="0 0 1277.000000 1479.000000"
 preserveAspectRatio="xMidYMid meet">
<metadata>
Created by potrace 1.16, written by Peter Selinger 2001-2019
</metadata>
<g transform="translate(0.000000,1479.000000) scale(0.100000,-0.100000)"
fill="#000000" stroke="none">
<path fill="#C2261F" d="M5184 14698 c41 -547 17 -1331 -60 -1928 -169 -1313 -573 -2403
-1193 -3220 -345 -454 -790 -850 -1261 -1119 l-125 -72 -7 123 c-13 230 -29
393 -53 534 -53 315 -144 648 -247 903 -77 192 -216 511 -227 524 -4 4 -15
-20 -25 -54 -25 -83 -154 -340 -410 -819 -750 -1402 -1149 -2355 -1386 -3315
-143 -575 -197 -1025 -187 -1535 9 -401 43 -636 142 -982 342 -1182 1003
-2111 1955 -2745 322 -215 709 -403 1086 -529 140 -47 394 -114 431 -114 18 0
-6 28 -111 132 -254 253 -421 520 -530 848 -78 235 -106 413 -106 677 0 560
191 1113 607 1759 216 335 378 627 662 1194 279 558 506 1047 778 1675 52 121
100 225 105 230 6 7 23 -5 50 -35 144 -162 238 -398 290 -733 26 -171 36 -636
19 -883 -12 -162 -45 -463 -57 -511 -4 -13 -2 -23 5 -23 18 0 183 144 275 240
101 106 201 233 295 375 495 740 791 1902 837 3277 7 207 7 207 28 196 45 -23
329 -321 461 -483 373 -458 1071 -1446 1240 -1753 85 -156 226 -448 300 -621
527 -1239 684 -2558 465 -3892 -93 -565 -267 -1158 -474 -1611 -14 -32 -22
-58 -17 -58 12 0 141 85 301 198 1079 764 2051 1735 2689 2687 558 833 880
1618 1021 2495 19 117 20 171 20 860 l0 736 -25 154 c-235 1429 -1023 2863
-2255 4101 -249 250 -592 559 -620 559 -35 0 -19 -335 55 -1140 27 -299 33
-590 14 -745 -50 -423 -234 -623 -507 -551 -91 25 -94 29 -126 167 -48 212
-134 514 -215 759 -434 1309 -1140 2371 -2111 3175 -424 351 -948 667 -1430
863 -139 56 -332 122 -357 122 -14 0 -15 -11 -9 -92z"/>
</g>
</svg>
