<?xml version="1.0" standalone="no"?>
<!DOCTYPE svg PUBLIC "-//W3C//DTD SVG 20010904//EN"
 "http://www.w3.org/TR/2001/REC-SVG-20010904/DTD/svg10.dtd">
<svg version="1.0" xmlns="http://www.w3.org/2000/svg"
 width="874.000000pt" height="1194.000000pt" viewBox="0 0 874.000000 1194.000000"
 preserveAspectRatio="xMidYMid meet">
<metadata>
Created by potrace 1.16, written by Peter Selinger 2001-2019
</metadata>
<g transform="translate(0.000000,1194.000000) scale(0.100000,-0.100000)"
fill="#000000" stroke="none">
<path fill="#1154BF" d="M4178 11804 c-232 -36 -432 -138 -628 -320 -443 -412 -942 -739
-1475 -969 -149 -64 -170 -78 -195 -131 -17 -35 -21 -58 -18 -99 4 -50 19 -75
248 -421 133 -203 244 -371 246 -373 2 -2 45 13 96 34 809 325 1689 439 2548
329 399 -50 848 -166 1213 -311 76 -30 140 -53 142 -52 16 18 478 727 486 745
25 67 -3 175 -54 208 -12 8 -83 42 -157 74 -543 238 -1027 555 -1460 957 -122
113 -187 161 -297 217 -213 110 -458 149 -695 112z m243 -559 l62 -195 210 -2
210 -3 -164 -119 c-90 -66 -166 -121 -168 -123 -3 -2 23 -90 57 -195 34 -106
60 -194 58 -196 -2 -2 -75 49 -162 112 -87 64 -163 116 -169 116 -5 0 -81 -52
-168 -116 -88 -63 -161 -114 -163 -112 -2 3 23 85 56 183 33 99 60 186 60 195
0 8 -75 69 -166 135 l-165 120 209 3 209 2 63 195 c35 107 65 195 66 195 2 0
31 -88 65 -195z"/>
<path fill="#1154BF" d="M4076 9650 c-581 -35 -1137 -161 -1667 -379 l-125 -52 17 -150 c9
-82 18 -152 21 -154 12 -12 304 -123 453 -171 373 -122 741 -196 1160 -236
169 -16 672 -15 845 1 419 38 818 121 1196 246 91 31 412 153 415 158 0 1 9
70 18 152 13 107 15 152 7 157 -24 17 -368 148 -490 188 -356 115 -776 199
-1151 230 -182 15 -532 20 -699 10z"/>
<path fill="#1154BF" d="M2508 8508 c-66 -212 -91 -485 -68 -719 88 -869 730 -1561 1590
-1714 129 -23 398 -31 530 -16 846 97 1506 697 1680 1527 47 223 51 487 11
714 -18 101 -54 246 -64 256 -1 2 -77 -21 -167 -51 -379 -124 -753 -202 -1195
-247 -197 -20 -788 -17 -985 5 -430 48 -771 120 -1138 239 -85 27 -160 52
-167 54 -6 3 -18 -17 -27 -48z"/>
<path fill="#1154BF" d="M2465 5707 c-592 -309 -1095 -759 -1471 -1317 -385 -571 -614 -1211
-680 -1903 -20 -212 -15 -640 10 -847 17 -135 74 -435 98 -519 l14 -45 144
-61 c1027 -439 2125 -692 3270 -756 237 -13 1002 -7 1210 10 1082 89 2084 328
3017 722 92 39 176 73 185 76 22 6 30 33 73 248 242 1206 -71 2447 -859 3402
-115 139 -380 404 -519 519 -130 107 -308 235 -449 323 -128 81 -388 221 -408
221 -8 0 -61 -33 -117 -74 -896 -647 -2100 -699 -3052 -131 -69 42 -165 105
-214 140 -48 36 -93 65 -100 65 -6 0 -75 -33 -152 -73z m3683 -1464 c171 -163
449 -200 658 -89 l63 33 7 -45 c13 -84 -4 -329 -30 -458 -90 -430 -332 -792
-699 -1042 l-99 -67 -34 20 c-162 95 -367 280 -479 434 -212 291 -325 633
-325 987 0 61 3 125 6 141 l6 30 62 -33 c238 -127 553 -60 717 152 l42 55 25
-33 c14 -18 50 -56 80 -85z"/>
</g>
</svg>
