<?xml version="1.0" standalone="no"?>
<!DOCTYPE svg PUBLIC "-//W3C//DTD SVG 20010904//EN"
 "http://www.w3.org/TR/2001/REC-SVG-20010904/DTD/svg10.dtd">
<svg version="1.0" xmlns="http://www.w3.org/2000/svg"
 width="990.000000pt" height="1350.000000pt" viewBox="0 0 990.000000 1350.000000"
 preserveAspectRatio="xMidYMid meet">
<metadata>
Created by potrace 1.16, written by Peter Selinger 2001-2019
</metadata>
<g transform="translate(0.000000,1350.000000) scale(0.100000,-0.100000)"
fill="#000000" stroke="none">
<path d="M4350 13480 c-155 -40 -315 -144 -411 -266 -78 -100 -1189 -1565
-1189 -1568 0 -2 21 -11 48 -21 26 -10 345 -168 710 -352 365 -184 665 -333
667 -332 1 2 234 308 515 679 548 722 569 754 611 920 31 121 24 310 -15 425
-89 262 -289 449 -550 515 -106 27 -281 27 -386 0z"/>
<path d="M6178 12879 c-152 -22 -307 -99 -419 -208 -43 -42 -310 -387 -728
-944 -364 -483 -661 -881 -661 -885 0 -4 111 -63 248 -131 349 -174 389 -199
508 -316 112 -112 185 -219 235 -350 37 -95 69 -239 69 -313 0 -31 4 -52 10
-50 17 5 1508 1990 1539 2048 59 111 83 204 88 340 9 244 -56 417 -222 586
-177 179 -417 260 -667 223z"/>
<path d="M2117 11580 c-202 -34 -392 -146 -506 -297 -93 -123 -421 -830 -625
-1346 -211 -532 -298 -866 -282 -1077 19 -245 61 -423 138 -596 230 -511 958
-1593 1897 -2818 l181 -235 -265 -2240 c-146 -1231 -265 -2246 -265 -2255 0
-15 203 -16 2410 -16 l2410 0 0 28 c0 15 -20 882 -44 1927 l-44 1900 26 31
c303 359 482 610 687 959 106 180 285 531 354 696 120 284 198 647 217 1016 4
67 5 123 2 123 -3 0 -38 -43 -77 -95 -211 -277 -478 -415 -799 -415 -260 0
-484 93 -675 279 -89 86 -172 204 -216 307 -34 79 -71 214 -71 256 0 17 -7 31
-15 35 -21 7 -378 -111 -595 -197 -188 -75 -482 -218 -619 -300 -46 -27 -90
-50 -98 -50 -7 0 -13 11 -13 26 0 41 -57 202 -101 284 -157 292 -432 597 -819
909 -277 222 -415 315 -687 460 -246 130 -691 336 -998 461 -44 18 -84 36 -89
41 -5 4 16 68 45 142 l54 136 270 -138 c788 -403 1192 -605 1255 -626 144 -49
305 -56 460 -20 36 9 112 38 169 66 93 45 115 62 200 148 160 161 232 317 247
535 19 281 -129 583 -357 729 -91 58 -2291 1166 -2367 1191 -124 43 -274 56
-395 36z"/>
<path d="M7290 11454 c-152 -32 -291 -110 -392 -218 -32 -33 -427 -547 -878
-1141 -875 -1151 -887 -1169 -926 -1330 -23 -94 -23 -276 0 -370 21 -90 92
-234 150 -307 142 -179 373 -288 606 -288 212 0 384 69 536 215 93 89 1710
2217 1759 2315 64 128 80 198 80 360 0 124 -3 156 -23 220 -90 285 -307 487
-587 545 -87 18 -239 18 -325 -1z"/>
<path d="M8305 9829 c-133 -22 -279 -93 -385 -186 -35 -31 -227 -279 -548
-708 -529 -706 -561 -755 -596 -912 -23 -103 -21 -270 4 -369 58 -227 199
-403 409 -508 110 -56 205 -77 341 -78 140 -1 220 17 345 77 170 82 174 86
726 824 306 409 512 693 533 736 58 117 80 212 80 350 -1 139 -17 221 -68 330
-65 140 -148 238 -270 320 -169 112 -375 157 -571 124z"/>
</g>
</svg>
